<?xml version="1.0" encoding="UTF-8" standalone="no"?> <!-- Created with Vectornator for iOS (http://vectornator.io/) --><!DOCTYPE svg PUBLIC "-//W3C//DTD SVG 1.1//EN" "http://www.w3.org/Graphics/SVG/1.1/DTD/svg11.dtd">
<svg height="100%" style="fill-rule:evenodd;clip-rule:evenodd;stroke-linecap:round;stroke-linejoin:round;" xmlns:xlink="http://www.w3.org/1999/xlink" xmlns="http://www.w3.org/2000/svg" xml:space="preserve" width="100%" xmlns:vectornator="http://vectornator.io" version="1.1" viewBox="0 0 966 618.611">
<metadata>
<vectornator:setting key="DynamicGuides" value="1"/>
<vectornator:setting key="Units" value="Points"/>
<vectornator:setting key="GuidesVisible" value="1"/>
<vectornator:setting key="GridSpacing" value="36"/>
<vectornator:setting key="SnapToGuides" value="1"/>
<vectornator:setting key="RulersVisible" value="1"/>
</metadata>
<defs/>
<g id="Untitled" vectornator:layerName="Untitled">
<path d="M560.586+177.467C559.702+179.555+558.838+181.695+558.018+183.829L555.872+183.004C556.701+180.846+557.574+178.683+558.468+176.571L560.586+177.467Z" opacity="1" fill="#e6e6e6"/>
<path d="M48+266.694L598+266.694L598+266.694L598+617.528L598+617.528L48+617.528L48+617.528L48+266.694L48+266.694Z" opacity="1" fill="#282c34"/>
<path d="M365.432+344.985C377.215+350.16+387.961+357.43+397.149+366.442L406.376+357.214C395.565+346.586+382.825+338.119+368.84+332.267L365.432+344.985Z" opacity="1" fill="#f51d1d"/>
<path d="M222.027+409.844C226.423+396.147+233.561+383.488+243.006+372.638L233.763+363.395C222.721+375.887+214.431+390.563+209.433+406.469L222.027+409.844Z" opacity="1" fill="#f51d1d"/>
<path d="M417.648+369.984L408.331+379.301C415.524+389.038+420.992+399.939+424.495+411.527L437.076+408.156C432.97+394.359+426.387+381.424+417.648+369.984Z" opacity="1" fill="#e6e6e6"/>
<path d="M245.891+351.481L255.149+360.739C266.035+351.635+278.641+344.812+292.217+340.675L288.846+328.094C273.06+332.825+258.431+340.789+245.891+351.481Z" opacity="1" fill="#f51d1d"/>
<path d="M217+442.111C217+436.855+217.389+431.607+218.165+426.409L205.531+423.024C202.91+439.263+203.66+455.868+207.735+471.804L220.31+468.435C218.107+459.834+216.995+450.99+217+442.111Z" opacity="1" fill="#f51d1d"/>
<path d="M349.122+544.851C340.584+547.02+331.809+548.116+323+548.111C319.737+548.111+316.51+547.955+313.321+547.665L309.911+560.391C324.167+561.962+338.59+560.957+352.491+557.425L349.122+544.851Z" opacity="1" fill="#e6e6e6"/>
<path d="M225.874+484.543L213.156+487.951C219.284+502.595+228.275+515.867+239.603+526.988L248.83+517.76C239.129+508.254+231.336+496.979+225.874+484.543Z" opacity="1" fill="#f51d1d"/>
<path d="M440.739+424.774L428.082+428.166C429.597+439.617+429.235+451.238+427.011+462.573L439.61+465.949C442.358+452.392+442.739+438.462+440.739+424.774Z" opacity="1" fill="#e6e6e6"/>
<path d="M308.847+337.058C322.366+335.241+336.108+336.043+349.324+339.421L352.693+326.846C337.266+322.903+321.208+322.072+305.456+324.401L308.847+337.058Z" opacity="1" fill="#f51d1d"/>
<path d="M296.5+544.757C284.098+541.547+272.384+536.107+261.929+528.703L252.588+538.044C264.75+546.998+278.511+553.544+293.131+557.33L296.5+544.757Z" opacity="1" fill="#e6e6e6"/>
<path d="M403.299+529.931L394.062+520.694C385.527+528.424+375.793+534.714+365.24+539.321L368.646+552.035C381.391+546.731+393.117+539.252+403.299+529.931Z" opacity="1" fill="#e6e6e6"/>
<path d="M422.399+478.937C418.445+489.557+412.815+499.474+405.721+508.311L415+517.59C423.648+507.068+430.422+495.138+435.028+482.321L422.399+478.937Z" opacity="1" fill="#e6e6e6"/>
<path d="M60+286.611L118+286.611L118+286.611L118+309.611L118+309.611L60+309.611L60+309.611L60+286.611L60+286.611Z" opacity="1" fill="#e6e6e6"/>
<path d="M60+321.611L118+321.611L118+321.611L118+344.611L118+344.611L60+344.611L60+344.611L60+321.611L60+321.611Z" opacity="1" fill="#f51d1d"/>
<path d="M410.969+55.7358C410.969+55.7358+417.501+77.1985+413.768+83.7306C410.035+90.2628+420.3+104.26+437.097+97.7281C453.894+91.1959+454.827+83.7306+454.827+83.7306C454.827+83.7306+448.295+73.4659+446.429+52.0031L410.969+55.7358Z" opacity="1" fill="#ffb9b9"/>
<path d="M325.584+266.164C325.584+266.164+291.99+282.961+306.921+305.357C315.599+318.375+332.16+343.689+344.508+362.606C354.841+378.437+362.767+395.716+368.024+413.877L370.376+422.002L379.708+433.2L399.304+410.804C399.304+410.804+370.376+357.614+370.376+347.349C370.376+337.084+347.047+304.424+347.047+304.424L370.376+289.493C370.376+289.493+344.247+259.632+325.584+266.164Z" opacity="1" fill="#ffb9b9"/>
<path d="M434.764+324.02C434.764+324.02+435.697+350.149+436.63+360.413C437.4+368.882+429.913+392.593+432.509+418.973C434.094+436.039+433.904+453.223+431.944+470.251L428.232+504.12L456.227+506.92L465.559+430.401C465.559+430.401+471.158+376.277+468.358+358.547L469.291+321.221C469.291+321.221+448.762+313.755+434.764+324.02Z" opacity="1" fill="#ffb9b9"/>
<path d="M384.84+215.307C384.84+215.307+319.519+257.299+318.585+270.363C318.585+270.363+355.912+266.631+356.845+299.291C356.845+299.291+379.241+290.893+384.84+289.026C390.439+287.16+420.3+267.564+420.3+267.564C420.3+267.564+432.431+276.895+432.431+291.826C432.431+306.756+431.498+332.885+432.431+334.751C433.364+336.618+454.827+309.556+472.557+332.885L484.688+268.497C484.688+268.497+488.421+229.304+480.956+226.504L428.699+206.908L384.84+215.307Z" opacity="1" fill="#2f2e41"/>
<path d="M396.504+39.4054C396.504+23.9443+409.038+11.4105+424.499+11.4105C439.961+11.4105+452.494+23.9443+452.494+39.4054C452.494+54.8666+439.961+67.4003+424.499+67.4003C409.038+67.4003+396.504+54.8666+396.504+39.4054Z" opacity="1" fill="#ffb9b9"/>
<path d="M417.501+88.3965C417.501+88.3965+449.077+96.7362+453.352+80.9018C453.352+80.9018+492.154+88.3965+498.686+113.592C505.218+138.787+482.822+199.443+482.822+201.309C482.822+203.175+501.485+214.373+493.087+219.972C484.688+225.571+477.223+219.039+480.956+226.504C484.688+233.97+491.22+235.836+485.621+237.702C480.022+239.569+446.429+210.641+420.3+218.106C394.172+225.571+381.107+219.972+381.107+219.972L369.391+118.713C368.462+110.831+371.593+103.015+377.708+97.9545C383.556+93.1411+391.315+87.9406+398.837+86.5301C413.768+83.7307+414.388+82.1981+414.388+82.1981L417.501+88.3965Z" opacity="1" fill="#d0cde1"/>
<path d="M387.639+251.7C387.639+251.7+396.038+299.291+407.236+292.759C418.434+286.227+404.436+251.7+404.436+251.7L387.639+251.7Z" opacity="1" fill="#ffb9b9"/>
<path d="M426.622+257.859C426.622+257.859+412.07+303.942+425.019+303.326C437.969+302.71+441.517+265.623+441.517+265.623L426.622+257.859Z" opacity="1" fill="#ffb9b9"/>
<path d="M375.042+420.136C375.042+420.136+368.51+412.67+364.777+422.935C361.044+433.2+350.78+446.264+350.78+446.264C350.78+446.264+328.384+471.46+344.247+472.393C360.111+473.326+382.507+449.997+382.507+449.997L408.636+425.735C408.636+425.735+399.976+404.644+395.907+404.458C391.839+404.272+392.772+429.467+375.042+420.136Z" opacity="1" fill="#2f2e41"/>
<path d="M435.697+497.588C435.697+497.588+429.121+499.508+429.61+491.549C429.61+491.549+405.836+504.12+412.368+513.452C418.9+522.784+426.366+532.115+426.366+532.115C426.366+532.115+460.893+551.712+463.692+547.046C466.492+542.38+466.492+533.048+464.625+529.316C462.759+525.583+453.427+519.051+456.227+513.452C459.026+507.853+455.294+492.922+450.628+492.922C445.962+492.922+435.697+497.588+435.697+497.588Z" opacity="1" fill="#2f2e41"/>
<path d="M400.069+15.6841C400.069+15.6841+409.074-3.82823+426.335+0.674611C443.596+5.17745+453.352+11.9317+454.103+18.6859C454.853+25.4402+453.727+35.5716+453.727+35.5716C453.727+35.5716+451.851+21.6878+439.844+24.6897C427.836+27.6916+409.074+25.4402+409.074+25.4402L406.072+52.4572C406.072+52.4572+402.695+47.5791+398.943+50.581C395.191+53.5829+388.061+21.6878+400.069+15.6841Z" opacity="1" fill="#2f2e41"/>
<path d="M482.822+112.659C482.822+112.659+460.426+173.314+462.292+180.78C464.159+188.245+462.292+189.178+459.493+191.044C456.693+192.911+449.228+212.507+449.228+212.507C449.228+212.507+444.562+223.705+440.83+226.505C437.097+229.304+437.097+236.769+437.097+236.769C437.097+236.769+427.765+246.101+429.632+247.967C431.498+249.834+431.498+252.633+427.765+255.433C424.033+258.232+420.3+261.965+422.166+262.898C424.033+263.831+437.097+274.096+440.83+273.163C444.562+272.229+438.963+268.497+443.629+266.631C448.295+264.764+451.094+261.965+449.228+261.032C447.362+260.098+441.763+260.098+447.362+258.232C452.961+256.366+472.557+244.235+479.089+229.304C485.622+214.373+516.919+124.04+498.004+111.351C498.004+111.351+490.287+101.461+482.822+112.659Z" opacity="1" fill="#d0cde1"/>
<path d="M379.241+102.394L378.862+102.552C371.706+105.536+366.482+111.858+364.901+119.449C362.864+129.202+360.859+143.308+362.444+156.517C365.244+179.846+367.11+190.111+370.842+197.576C374.575+205.042+375.508+202.242+374.575+207.841C373.642+213.44+368.976+208.774+373.642+216.24C378.308+223.705+381.107+221.839+379.241+225.571C377.375+229.304+374.575+229.304+378.308+233.97C382.04+238.636+382.04+240.502+382.974+242.368C383.907+244.235+386.706+258.232+386.706+258.232C386.706+258.232+401.637+253.566+410.035+255.433C410.035+255.433+402.57+242.368+404.436+239.569C406.303+236.769+409.102+235.836+406.303+233.037C403.503+230.237+398.837+231.17+403.503+228.371C408.169+225.571+399.771+196.643+399.771+196.643L379.241+102.394Z" opacity="1" fill="#d0cde1"/>
</g>
</svg>
