<?xml version="1.0" encoding="UTF-8" standalone="no"?> <!-- Created with Vectornator for iOS (http://vectornator.io/) --><!DOCTYPE svg PUBLIC "-//W3C//DTD SVG 1.1//EN" "http://www.w3.org/Graphics/SVG/1.1/DTD/svg11.dtd">
<svg height="100%" style="fill-rule:evenodd;clip-rule:evenodd;stroke-linecap:round;stroke-linejoin:round;" xmlns:xlink="http://www.w3.org/1999/xlink" xmlns="http://www.w3.org/2000/svg" xml:space="preserve" width="100%" xmlns:vectornator="http://vectornator.io" version="1.1" viewBox="0 0 1920 1080">
<metadata>
<vectornator:setting key="RulersVisible" value="1"/>
<vectornator:setting key="Units" value="Points"/>
<vectornator:setting key="New" value="1"/>
<vectornator:setting key="DynamicGuides" value="1"/>
<vectornator:setting key="GuidesVisible" value="1"/>
<vectornator:setting key="CMYKEnabledKey" value="0"/>
<vectornator:setting key="SnapToGuides" value="1"/>
<vectornator:setting key="GridSpacing" value="36"/>
</metadata>
<defs/>
<g id="Layer 2" vectornator:layerName="Layer 2">
    
<path d="M1095.6+281.234L1045.62+331.213L854.628+331.213C847.668+331.213+841.054+332.647+835.044+335.237C817.429+342.818+805.097+360.313+805.097+380.709L805.097+571.75L804.441+572.388L755.688+523.635L755.688+330.971C755.688+303.512+777.949+281.234+805.426+281.234L1095.6+281.234Z" opacity="1" fill="#ffffff"/>
<path d="M885.125+371.643C857.466+371.643+835.044+394.065+835.044+421.724L955.208+421.724L1005.19+371.643L885.125+371.643Z" opacity="1" fill="#ffffff"/>
<path d="M1163.5+371.643L1113.52+421.622L984.705+421.622L1034.68+371.643L1163.5+371.643Z" opacity="1" fill="#ec222c"/>
<path d="M914.401+461.949L1073.09+462.051L1023.22+511.928L914.401+511.928L914.401+461.949Z" opacity="1" fill="#ec222c"/>
<path d="M835.044+461.949L835.044+602.991L883.607+651.554L884.471+650.691L884.471+461.949L835.044+461.949Z" opacity="1" fill="#ec222c"/>
<g opacity="1">
<path d="M1495.32+494.985L1483.07+507.241L1436.24+507.241C1434.53+507.241+1432.91+507.592+1431.43+508.227C1427.11+510.086+1424.09+514.376+1424.09+519.378L1424.09+566.223L1423.93+566.379L1411.97+554.424L1411.97+507.181C1411.97+500.448+1417.43+494.985+1424.17+494.985L1495.32+494.985Z" opacity="1" fill="#ffffff"/>
<path d="M1443.71+517.154C1436.93+517.154+1431.43+522.652+1431.43+529.435L1460.9+529.435L1473.15+517.154L1443.71+517.154Z" opacity="1" fill="#ffffff"/>
<path d="M1511.97+517.154L1499.72+529.41L1468.13+529.41L1480.39+517.154L1511.97+517.154Z" opacity="1" fill="#ec222c"/>
<path d="M1450.89+539.298L1489.81+539.323L1477.58+551.554L1450.89+551.554L1450.89+539.298Z" opacity="1" fill="#ec222c"/>
<path d="M1431.43+539.298L1431.43+573.883L1443.34+585.791L1443.55+585.58L1443.55+539.298L1431.43+539.298Z" opacity="1" fill="#ec222c"/>
</g>
<g opacity="1">
<path d="M1807.29+617.791L1736.33+676.865L1465.18+676.865C1455.3+676.865+1445.91+678.559+1437.37+681.621C1412.36+690.581+1394.86+711.26+1394.86+735.367L1394.86+961.169L1393.92+961.923L1324.71+904.299L1324.71+676.579C1324.71+644.123+1356.31+617.791+1395.32+617.791L1807.29+617.791Z" opacity="1" fill="#ffffff"/>
<path d="M1508.48+724.65C1469.21+724.65+1437.37+751.152+1437.37+783.844L1607.98+783.844L1678.94+724.65L1508.48+724.65Z" opacity="1" fill="#ffffff"/>
<path d="M1903.7+724.65L1832.74+783.723L1649.86+783.723L1720.81+724.65L1903.7+724.65Z" opacity="1" fill="#ec222c"/>
<path d="M1550.04+831.389L1775.34+831.509L1704.53+890.462L1550.04+890.462L1550.04+831.389Z" opacity="1" fill="#ec222c"/>
<path d="M1437.37+831.389L1437.37+998.094L1506.32+1055.49L1507.55+1054.47L1507.55+831.389L1437.37+831.389Z" opacity="1" fill="#ec222c"/>
</g>
<g opacity="1">
<path d="M727.635+466.309L648.582+549.134L346.487+549.134C335.478+549.134+325.017+551.51+315.51+555.802C287.648+568.365+268.142+597.358+268.142+631.158L268.142+947.75L267.104+948.807L189.99+868.014L189.99+548.733C189.99+503.228+225.201+466.309+268.662+466.309L727.635+466.309Z" opacity="1" fill="#ffffff"/>
<path d="M394.725+616.133C350.976+616.133+315.51+653.29+315.51+699.127L505.578+699.127L584.633+616.133L394.725+616.133Z" opacity="1" fill="#ffffff"/>
<path d="M835.044+616.133L755.99+698.958L552.235+698.958L631.29+616.133L835.044+616.133Z" opacity="1" fill="#ec222c"/>
<path d="M441.033+765.788L692.042+765.957L613.149+848.613L441.033+848.613L441.033+765.788Z" opacity="1" fill="#ec222c"/>
<path d="M315.51+765.788L315.51+999.522L392.324+1080L393.691+1078.57L393.691+765.788L315.51+765.788Z" opacity="1" fill="#ec222c"/>
</g>
<g opacity="1">
<path d="M1231.6+592.388L1181.62+642.367L990.629+642.367C983.669+642.367+977.055+643.801+971.045+646.391C953.43+653.972+941.098+671.467+941.098+691.863L941.098+882.904L940.442+883.542L891.689+834.789L891.689+642.125C891.689+614.666+913.95+592.388+941.427+592.388L1231.6+592.388Z" opacity="1" fill="#ffffff"/>
<path d="M1021.13+682.797C993.467+682.797+971.045+705.219+971.045+732.878L1091.21+732.878L1141.19+682.797L1021.13+682.797Z" opacity="1" fill="#ffffff"/>
<path d="M1299.5+682.797L1249.52+732.776L1120.71+732.776L1170.69+682.797L1299.5+682.797Z" opacity="1" fill="#ec222c"/>
<path d="M1050.4+773.103L1209.09+773.205L1159.22+823.082L1050.4+823.082L1050.4+773.103Z" opacity="1" fill="#ec222c"/>
<path d="M971.045+773.103L971.045+914.145L1019.61+962.708L1020.47+961.845L1020.47+773.103L971.045+773.103Z" opacity="1" fill="#ec222c"/>
</g>
<g opacity="1">
<path d="M1661.05+74.7844L1587.89+149.403L1308.33+149.403C1298.14+149.403+1288.46+151.544+1279.66+155.411C1253.88+166.73+1235.82+192.85+1235.82+223.301L1235.82+508.526L1234.86+509.479L1163.5+436.69L1163.5+149.042C1163.5+108.046+1196.09+74.7844+1236.31+74.7844L1661.05+74.7844Z" opacity="1" fill="#ffffff"/>
<path d="M1352.97+209.764C1312.48+209.764+1279.66+243.24+1279.66+284.535L1455.55+284.535L1528.71+209.764L1352.97+209.764Z" opacity="1" fill="#ffffff"/>
<path d="M1760.45+209.764L1687.29+284.383L1498.73+284.383L1571.89+209.764L1760.45+209.764Z" opacity="1" fill="#ec222c"/>
<path d="M1395.82+344.592L1628.11+344.745L1555.1+419.211L1395.82+419.211L1395.82+344.592Z" opacity="1" fill="#ec222c"/>
<path d="M1279.66+344.592L1279.66+555.169L1350.75+627.674L1352.01+626.385L1352.01+344.592L1279.66+344.592Z" opacity="1" fill="#ec222c"/>
</g>
<g opacity="1">
<path d="M1078.94+135.258L1066.69+147.514L1019.86+147.514C1018.15+147.514+1016.53+147.865+1015.05+148.5C1010.74+150.359+1007.71+154.649+1007.71+159.651L1007.71+206.496L1007.55+206.652L995.596+194.697L995.596+147.454C995.596+140.721+1001.05+135.258+1007.79+135.258L1078.94+135.258Z" opacity="1" fill="#ffffff"/>
<path d="M1027.33+157.427C1020.55+157.427+1015.05+162.925+1015.05+169.708L1044.52+169.708L1056.78+157.427L1027.33+157.427Z" opacity="1" fill="#ffffff"/>
<path d="M1095.6+157.427L1083.34+169.683L1051.75+169.683L1064.01+157.427L1095.6+157.427Z" opacity="1" fill="#ec222c"/>
<path d="M1034.51+179.571L1073.43+179.596L1061.2+191.827L1034.51+191.827L1034.51+179.571Z" opacity="1" fill="#ec222c"/>
<path d="M1015.05+179.571L1015.05+214.156L1026.96+226.064L1027.17+225.853L1027.17+179.571L1015.05+179.571Z" opacity="1" fill="#ec222c"/>
</g>
<g opacity="1">
<path d="M1793.8+381.408L1781.54+393.664L1734.71+393.664C1733+393.664+1731.38+394.015+1729.91+394.65C1725.59+396.509+1722.56+400.799+1722.56+405.801L1722.56+452.646L1722.4+452.802L1710.45+440.847L1710.45+393.604C1710.45+386.871+1715.91+381.408+1722.65+381.408L1793.8+381.408Z" opacity="1" fill="#ffffff"/>
<path d="M1742.19+403.577C1735.41+403.577+1729.91+409.075+1729.91+415.858L1759.37+415.858L1771.63+403.577L1742.19+403.577Z" opacity="1" fill="#ffffff"/>
<path d="M1810.45+403.577L1798.19+415.833L1766.61+415.833L1778.86+403.577L1810.45+403.577Z" opacity="1" fill="#ec222c"/>
<path d="M1749.37+425.721L1788.28+425.746L1776.05+437.977L1749.37+437.977L1749.37+425.721Z" opacity="1" fill="#ec222c"/>
<path d="M1729.91+425.721L1729.91+460.306L1741.82+472.214L1742.03+472.003L1742.03+425.721L1729.91+425.721Z" opacity="1" fill="#ec222c"/>
</g>
<g opacity="1">
<path d="M1178.94+917.305L1166.69+929.56L1119.86+929.56C1118.15+929.56+1116.53+929.912+1115.05+930.547C1110.74+932.406+1107.71+936.696+1107.71+941.697L1107.71+988.543L1107.55+988.699L1095.6+976.744L1095.6+929.501C1095.6+922.768+1101.05+917.305+1107.79+917.305L1178.94+917.305Z" opacity="1" fill="#ffffff"/>
<path d="M1127.33+939.474C1120.55+939.474+1115.05+944.972+1115.05+951.754L1144.52+951.754L1156.78+939.474L1127.33+939.474Z" opacity="1" fill="#ffffff"/>
<path d="M1195.6+939.474L1183.34+951.729L1151.75+951.729L1164.01+939.474L1195.6+939.474Z" opacity="1" fill="#ec222c"/>
<path d="M1134.51+961.618L1173.43+961.643L1161.2+973.874L1134.51+973.874L1134.51+961.618Z" opacity="1" fill="#ec222c"/>
<path d="M1115.05+961.618L1115.05+996.203L1126.96+1008.11L1127.17+1007.9L1127.17+961.618L1115.05+961.618Z" opacity="1" fill="#ec222c"/>
</g>
</g>
</svg>
