<?xml version="1.0" encoding="UTF-8" standalone="no"?> <!-- Created with Vectornator for iOS (http://vectornator.io/) --><!DOCTYPE svg PUBLIC "-//W3C//DTD SVG 1.1//EN" "http://www.w3.org/Graphics/SVG/1.1/DTD/svg11.dtd">
<svg height="100%" style="fill-rule:nonzero;clip-rule:evenodd;stroke-linecap:round;stroke-linejoin:round;" xmlns:xlink="http://www.w3.org/1999/xlink" xmlns="http://www.w3.org/2000/svg" xml:space="preserve" width="100%" xmlns:vectornator="http://vectornator.io" version="1.1" viewBox="0 0 649.675 516.232">
<metadata>
<vectornator:setting key="DimensionsVisible" value="1"/>
<vectornator:setting key="PencilOnly" value="0"/>
<vectornator:setting key="SnapToPoints" value="0"/>
<vectornator:setting key="OutlineMode" value="0"/>
<vectornator:setting key="CMYKEnabledKey" value="0"/>
<vectornator:setting key="RulersVisible" value="1"/>
<vectornator:setting key="SnapToEdges" value="0"/>
<vectornator:setting key="GuidesVisible" value="1"/>
<vectornator:setting key="DisplayWhiteBackground" value="0"/>
<vectornator:setting key="doHistoryDisabled" value="0"/>
<vectornator:setting key="SnapToGuides" value="1"/>
<vectornator:setting key="TimeLapseWatermarkDisabled" value="0"/>
<vectornator:setting key="Units" value="Points"/>
<vectornator:setting key="DynamicGuides" value="0"/>
<vectornator:setting key="IsolateActiveLayer" value="0"/>
<vectornator:setting key="SnapToGrid" value="0"/>
</metadata>
<defs/>
<g id="Untitled" vectornator:layerName="Untitled">
<path d="M158.838+515.232L107.838+515.232C104.25+515.227+101.342+512.32+101.338+508.732L101.338+402.732C101.342+399.143+104.25+396.236+107.838+396.232L158.838+396.232C162.426+396.236+165.334+399.143+165.338+402.732L165.338+508.732C165.334+512.32+162.426+515.227+158.838+515.232Z" opacity="1" fill="#ff0000"/>
<path d="M279.838+516.232L228.838+516.232C224.698+516.227+221.342+512.872+221.338+508.732L221.338+302.732C221.342+298.591+224.698+295.236+228.838+295.232L279.838+295.232C283.978+295.236+287.333+298.591+287.338+302.732L287.338+508.732C287.333+512.872+283.978+516.227+279.838+516.232ZM228.838+297.232C225.802+297.235+223.341+299.695+223.338+302.732L223.338+508.732C223.341+511.768+225.802+514.228+228.838+514.232L279.838+514.232C282.874+514.228+285.334+511.768+285.338+508.732L285.338+302.732C285.334+299.695+282.874+297.235+279.838+297.232L228.838+297.232Z" opacity="1" fill="#3f3d56"/>
<path d="M400.838+516.232L349.838+516.232C345.698+516.227+342.342+512.872+342.338+508.732L342.338+171.732C342.342+167.591+345.698+164.236+349.838+164.232L400.838+164.232C404.978+164.236+408.333+167.591+408.338+171.732L408.338+508.732C408.333+512.872+404.978+516.227+400.838+516.232ZM349.838+166.232C346.802+166.235+344.341+168.695+344.338+171.732L344.338+508.732C344.341+511.768+346.802+514.228+349.838+514.232L400.838+514.232C403.874+514.228+406.334+511.768+406.338+508.732L406.338+171.732C406.334+168.695+403.874+166.235+400.838+166.232L349.838+166.232Z" opacity="1" fill="#3f3d56"/>
<path d="M522.967+515.732L471.967+515.732C468.379+515.727+465.471+512.82+465.467+509.232L465.467+34.2316C465.471+30.6435+468.379+27.7357+471.967+27.7316L522.967+27.7316C526.555+27.7357+529.463+30.6435+529.467+34.2316L529.467+509.232C529.463+512.82+526.555+515.727+522.967+515.732Z" opacity="1" fill="#ff0000"/>
<path d="M205.779+222.358C206.154+219.406+205.202+216.439+203.179+214.257C201.156+212.074+198.27+210.9+195.297+211.05L177.521+178.44L173.521+192.44L185.7+222.326C186.295+227.414+190.603+231.253+195.725+231.261C200.848+231.269+205.168+227.444+205.779+222.358Z" opacity="1" fill="#a0616a"/>
<path d="M68.816+351.113L78.717+358.342L111.312+323.589L96.698+312.92L68.816+351.113Z" opacity="1" fill="#a0616a"/>
<path d="M91.1011+381.478L59.9811+358.758L59.9811+358.758L68.759+346.735L68.759+346.735L87.8554+360.676C94.4958+365.524+95.949+374.837+91.1011+381.478L91.1011+381.478L91.1011+381.478Z" opacity="1" fill="#2f2e41"/>
<path d="M121.201+389.377L133.461+389.376L139.293+342.088L121.199+342.089L121.201+389.377Z" opacity="1" fill="#a0616a"/>
<path d="M157.105+400.759L118.575+400.761L118.575+400.761L118.574+385.874L118.574+385.874L142.218+385.873C150.44+385.873+157.105+392.538+157.105+400.759L157.105+400.759L157.105+400.759Z" opacity="1" fill="#2f2e41"/>
<path d="M158.021+204.94C158.021+204.94+164.021+262.94+149.021+302.94L138.021+378.94L119.021+378.94L121.021+288.94L114.021+208.94C114.021+208.94+128.021+172.94+158.021+204.94Z" opacity="1" fill="#2f2e41"/>
<path d="M93.021+208.94L113.021+277.94L74.021+339.94L93.521+356.44L138.021+286.94L125.021+201.94L93.021+208.94Z" opacity="1" fill="#2f2e41"/>
<path d="M119.464+29.6531C119.464+16.0884+130.46+5.09207+144.025+5.09207C157.59+5.09207+168.586+16.0884+168.586+29.6531C168.586+43.2178+157.59+54.2141+144.025+54.2141C130.46+54.2141+119.464+43.2178+119.464+29.6531Z" opacity="1" fill="#a0616a"/>
<path d="M123.521+63.4405C123.521+63.4405+138.521+53.4405+155.521+75.4405L160.021+213.941C160.021+213.941+147.021+195.941+120.021+212.941C93.0209+229.941+87.0209+210.941+87.0209+210.941C87.0209+210.941+68.0209+67.9405+123.521+63.4405Z" opacity="1" fill="#cccccc"/>
<path d="M154.311+75.0913L154.311+75.0913C163.245+75.5742+170.377+82.7166+170.848+91.6516L174.021+151.94L195.021+208.94L183.021+218.94L144.021+150.94L136.036+95.0474C135.295+89.86+136.917+84.6134+140.456+80.7489C143.995+76.8844+149.079+74.8085+154.311+75.0913Z" opacity="1" fill="#cccccc"/>
<path d="M125.978+48.0764C129.993+52.3535+137.45+50.0574+137.973+44.2143C138.014+43.7606+138.011+43.3041+137.964+42.851C137.694+40.2627+136.199+37.9129+136.557+35.1801C136.638+34.4999+136.891+33.8517+137.293+33.2969C140.493+29.0123+148.004+35.2133+151.023+31.3346C152.875+28.9563+150.699+25.2117+152.119+22.5535C153.995+19.0451+159.55+20.7758+163.033+18.8544C166.909+16.7166+166.677+10.7701+164.126+7.15319C161.014+2.74219+155.559+0.388441+150.172+0.0491906C144.784-0.29006+139.434+1.16628+134.405+3.12634C128.69+5.35334+123.023+8.43114+119.507+13.456C115.23+19.5667+114.819+27.782+116.957+34.9273C118.259+39.2739+122.699+44.5836+125.978+48.0764Z" opacity="1" fill="#2f2e41"/>
<path d="M648.485+515.807L1.19067+515.807C0.534429+515.805+0.00344788+515.273+0.00344778+514.617C0.00344764+513.96+0.534429+513.428+1.19067+513.426L648.485+513.426C649.141+513.428+649.672+513.96+649.672+514.617C649.672+515.273+649.141+515.805+648.485+515.807Z" opacity="1" fill="#3f3d56"/>
</g>
</svg>
